<?xml version="1.0" encoding="utf-8"?>
<!-- Generator: Adobe Illustrator 26.0.1, SVG Export Plug-In . SVG Version: 6.00 Build 0)  -->
<svg version="1.1" id="Layer_1" xmlns="http://www.w3.org/2000/svg" xmlns:xlink="http://www.w3.org/1999/xlink" x="0px" y="0px"
	 viewBox="60 80 980 660" style="enable-background:new 0 0 1080 1080;" xml:space="preserve">
<style type="text/css">
	.st0{fill:#D5722B;}
	.st1{fill:#FFFFFF;}
	.st2{font-family:'NexaLight';}
	.st3{font-size:92.4685px;}
	.st4{fill:#E5934A;}
	.st5{fill:#9A2B31;}
	.st6{fill:#847E40;}
	.st7{fill:#7F7B3C;}
	.st8{fill:#E6903D;}
	.st9{fill:#A64B38;}
	.st10{fill:#642B3C;}
	.st11{fill:#D2643F;}
</style>
<g>
	<rect x="88.08" y="702.82" class="st0" width="935.3" height="8.32"/>
	<text transform="matrix(1 0 0 1 85.5866 683.8696)" class="st1 st2 st3">CORNUCOPIALOCAL</text>
</g>
<g>
	<path class="st1" d="M564.99,545.26c0.49-0.65,1.19-1.45,2.15-2.22c0.75-0.6,1.48-1.04,2.09-1.35
		c-5.07-2.21-13.24-6.53-20.63-14.65c-14.76-16.23-19.46-39.98-13.3-60.21c2.3-7.57,7.67-25.2,24.63-31.77
		c13.79-5.34,26.86-0.14,30.54,1.48c-0.97-0.69-16.93-11.65-34.72-4.19c-11.29,4.74-16.26,14.56-19.95,21.92
		c-8.1,16.17-11.7,40.45,0,62.55C544.68,533.6,558.58,541.96,564.99,545.26z"/>
	<path class="st1" d="M599.83,427.83c-4.09-2.69-23.01-14.52-44.66-8.7c-32.05,8.62-39.34,47.7-40.23,52.87
		c-5.47,32.06,13.64,56.99,16.09,60.09c1.33,1.68,2.52,3.02,3.37,3.94c-4.43-2.7-10.28-7.09-15.35-13.96
		c-12.41-16.8-10.83-35.78-10.18-41.21c-1.29,5.84-2.76,16.64,0.98,29.06c1.58,5.22,5.49,18.19,17.9,26.6
		c4.46,3.02,8.73,4.58,11.66,5.42c2.13,2.5,5.96,6.3,11.82,9.03c3.41,1.59,6.57,2.38,9.03,2.79c0.49-1.42,0.99-2.85,1.48-4.27
		c-6.16-2.71-18.36-9.07-28.24-22.33c-13.92-18.67-13.9-38.49-13.79-45.48c0.12-8.01,0.38-24.62,12.15-40.06
		c8.39-11.01,18.76-16.35,24.3-18.72c-4.19,2.62-10.53,7.36-15.84,15.19c-9.06,13.35-9.3,27.09-9.11,32.34
		c3.61-8.26,7.22-16.53,10.84-24.79c0.68-2.33,1.96-5.7,4.43-9.19c0,0,5.26-7.43,14.61-11.25c16.56-6.76,33.84,4.02,35.42,5.05
		C597.62,429.45,598.73,428.64,599.83,427.83z"/>
	<path class="st1" d="M547.13,548.34c-5.64-0.67-15.65-2.7-25.36-9.86c-20.01-14.75-21.78-38.78-22-42.6
		c-0.53,4.51-0.66,10.75,1.06,17.81c4.02,16.47,15.38,26.08,19.7,29.39c-3.72-0.87-21.19-5.38-32.35-22.65
		c-2.2-3.4-12.49-20.2-6.73-41.21c6.4-23.36,27.31-32.43,29.88-33.49c-2.98,3.03-8.35,9.33-11.33,18.96
		c-2.58,8.35-2.23,15.54-1.72,19.62c0.67-5.71,2.71-16.46,10.06-27.58c8.56-12.96,19.64-19.33,24.88-21.92
		c3.61-3.33,7.22-6.65,10.84-9.98c-3.12,1.33-7.86,3.51-13.42,6.65c-6.6,3.74-7.28,4.84-11.57,7.02
		c-6.54,3.32-13.64,6.93-21.55,5.05c-6.07-1.44-13.33-6.28-14.65-13.54c-0.24-1.27-1.26-7.95,3.32-11.33
		c3.49-2.57,8.94-2.29,13.3,0.99c0.8-1.36,2.59-4.86,1.72-8.87c-1.41-6.45-8.67-9.4-13.06-10.1c-2.3-0.37-7.49-0.7-15.39,4.31
		c-15.42,9.77-21.24,27.29-22.5,31.36c-10.34,33.65,9.68,65.46,12.81,70.27c18.01,27.7,45.2,37.1,55.66,40.71
		c16.83,5.82,31.74,6.68,41.54,6.49L547.13,548.34z M490.61,404.4c3.54,0.32,6.76,4.2,7.82,9.73c-0.88-0.61-3.29-2.11-6.46-1.85
		c-1.11,0.09-2.05,0.38-2.77,0.68c0.27-0.6,0.73-1.86,0.56-3.45c-0.28-2.55-1.98-4.07-2.4-4.43
		C488.74,404.38,489.87,404.33,490.61,404.4z M481.13,405.75c0.45,0.05,2.73,0.36,4.37,2.4c1.76,2.2,1.42,4.71,1.36,5.11
		c-0.6,0.24-1.51,0.7-2.4,1.53c-0.73,0.69-1.19,1.4-1.48,1.91c-0.4-1-1.44-3.22-3.82-5.05c-2.46-1.88-4.97-2.29-6.03-2.4
		C475.79,408.09,478.46,406.92,481.13,405.75z M466.05,415.6c0.76-0.51,6.6-4.22,11.02-1.29c2.52,1.68,3.2,4.61,3.38,5.6
		c-0.47,1.78-0.94,3.57-1.42,5.36c-0.91-0.98-3.52-3.51-7.76-4.37c-5.41-1.1-9.61,1.32-10.58,1.91
		C461.17,421.35,462.54,417.9,466.05,415.6z M457.48,430.95c1.71-2.12,5.76-7.15,11.74-6.73c3.97,0.28,7.49,2.87,9.36,5.99
		c1.1,1.83,1.49,3.6,1.64,4.76c-2.24-0.65-7.34-1.79-13.38-0.08c-8.41,2.38-12.75,8.61-13.87,10.34
		C452.89,442.95,452.99,436.53,457.48,430.95z M453.17,454.02c1.51-3.96,4.71-12.35,13.18-15.27c11.12-3.82,21.42,5.22,21.92,5.67
		c-3.48,0.88-14.21,4.09-22.41,14.53c-9.4,11.95-8.95,25.08-8.75,28.32C455.39,484.24,447.32,469.42,453.17,454.02z M470.62,509.92
		c-3.49-5.68-12.02-22.17-5.42-39.73c1.22-3.25,6-15.98,19.05-21.01c6.62-2.56,12.69-2.1,16.09-1.56
		c-2.57,1.65-23.24,15.48-25.37,41.37c-1.56,19.02,7.86,32.74,10.59,36.45C481.74,522.85,475.56,517.96,470.62,509.92z"/>
	<path class="st4" d="M589.98,533.07c0.96-9.61,6.89-17.19,14.65-19.21c0.74-0.19,8.69-2.14,14.04,2.59
		c6.97,6.16,4.04,18.86,0.37,25.74c-4.32,8.09-13.83,15.89-21.92,14.16c-3.62-0.77-6.92-3.45-10.71-6.53
		c-2.35-1.91-4.88-3.96-6.65-6.53c-4.57-6.63-5.94-19.41,1.97-27.71c8.38-8.8,20.96-6.05,21.55-5.91
		c-1.31,0.37-7.54,2.28-11.33,8.74C588,525.16,589.65,531.84,589.98,533.07z"/>
	<path class="st1" d="M606.11,511.03c0.25-2.03,0.33-4.66-0.25-7.63c-0.2-1.04-0.46-2-0.74-2.87c-0.05-0.03-0.88-0.62-0.82-1.56
		c0.06-0.93,0.94-1.6,1.64-1.6c1.01-0.01,1.68,1.37,2.09,2.22c0.55,1.14,1.45,3.6,0.62,7.47c0.49-0.92,3.76-6.81,10.75-8.33
		c4.51-0.98,8.19,0.37,9.6,0.99c-0.71,1.39-3.48,6.37-9.6,8.87c-4.83,1.97-9.13,1.33-10.84,0.99
		C607.76,510.05,606.93,510.54,606.11,511.03z"/>
	<path class="st5" d="M617.94,495.27c2.74-0.45,7.68-0.81,12.87,1.48c1.35,0.59,2.51,1.28,3.51,1.97c-1.29,2.61-3.59,6.39-7.51,9.91
		c-2.32,2.09-4.62,3.54-6.53,4.56c3.52-0.02,12.07,0.42,19.83,6.34c2.82,2.16,4.85,4.51,6.28,6.53c2.39-0.61,11.08-3.12,16.5-11.57
		c1.4-2.18,5-7.8,3.94-15.39c-0.99-7.1-5.45-11.49-6.9-12.81c-0.76-0.92-0.85-1.74-0.86-2.09c-0.05-1.81,1.67-3.69,4.31-4.35
		c0.49-0.13,1.32-0.41,1.4-0.9c0.11-0.74-1.52-1.59-2.63-1.93c-0.64-0.19-2.01-0.49-3.86,0.08c0.05-1.52,0.11-3.04,0.16-4.57
		c0.02-0.07,0.21-0.67-0.09-1.02c-0.33-0.39-1.21-0.41-1.91,0.25c-1.15,0.93-2.3,1.87-3.45,2.8c-1.06-1.4-2.11-2.79-3.17-4.19
		c-0.27-0.72-1-0.97-1.42-0.74c-0.29,0.16-0.46,0.58-0.4,1.02c0.03,1.92,0.06,3.83,0.09,5.75c-0.06,0.21-0.26,0.91-0.94,1.4
		c-0.93,0.67-1.99,0.41-2.13,0.37c-1.68-0.47-8.5-2.16-15.64,1.48C620.11,484.36,618.15,494.09,617.94,495.27z"/>
	<path class="st6" d="M623.23,517.19c1.03,1.94,4.79,9.61,2.34,18.96c-1.57,6-4.97,9.9-6.77,11.7c2.65,2.24,5.01,3.09,6.65,3.45
		c4.29,0.95,6.18-0.85,9.97,0.86c1.01,0.45,2.12,1.14,3.69,0.99c0.45-0.04,2.16-0.28,3.2-1.6c1.07-1.35,0.47-2.62,0.99-5.29
		c0.42-2.17,1.21-3.4,1.6-4.31c1.8-4.18-0.08-12.69-5.54-18.35C633.03,517.03,624.65,517.15,623.23,517.19z"/>
	<path class="st1" d="M648.29,532.58c-0.13,1.53-0.19,4.88,1.91,7.76c3.17,4.35,10,5.91,16.62,3.26c-0.18-1.03-1.55-8.38-8.43-12.25
		c-4.79-2.7-9.48-2.15-11.02-1.91c1.25,0.48,3.26,1.42,5.23,3.26c2.05,1.91,3.14,3.93,3.69,5.17
		C653.62,536.11,650.96,534.35,648.29,532.58z"/>
	<path class="st7" d="M613.87,496.25c0.37-2.5,1.74-9.54,7.76-15.39c3.78-3.68,7.83-5.37,10.22-6.16
		c-0.89-3.74-1.63-8.36-1.72-13.67c-0.05-3.15,0.13-6.03,0.43-8.59c-0.45-4.37-3.42-7.85-7.2-8.65c-3.83-0.81-6.89,1.47-7.39,1.85
		c-0.88,1.82-2.43,4.67-4.93,7.7c-4.41,5.35-7.85,6.48-12.07,11.27c-1.8,2.05-4.26,5.34-6.28,10.28c3.77,2.3,9.44,6.49,14.04,13.48
		c2.03,3.09,3.41,6.06,4.37,8.62c0.3,0.53,0.86,0.85,1.42,0.8C613.23,497.73,613.85,497.08,613.87,496.25z"/>
	<path class="st1" d="M635.38,473.97c-0.26-0.77-2.04-6.27,1.23-11.74c3.32-5.55,9.15-6.53,9.93-6.65c0.23,0.95,1.5,6.59-2.05,11.99
		C641.33,472.38,636.49,473.69,635.38,473.97z"/>
	<path class="st1" d="M629.14,439.16c1.24-0.73,2.71-1.48,4.43-2.13c2.95-1.13,5.63-1.6,7.72-1.81c-2.21,0.72-4.94,1.85-7.8,3.69
		c-1.61,1.03-2.97,2.11-4.1,3.12c1.11,0.44,6.03,2.26,11.66,0.08c6.29-2.44,8.65-8,9.03-8.95c-0.59-0.38-6.59-4.1-13.3-1.4
		C631.74,433.8,629.61,438.13,629.14,439.16z"/>
	<path class="st1" d="M623.97,444.82c-0.22-0.05,0.7-2.93,0.08-7.39c-0.27-1.92-0.73-3.51-1.15-4.68c-0.21-0.24-1.34-1.6-0.9-2.63
		c0.5-1.18,2.93-1.6,4.1-0.82C629.48,431.55,624.44,444.93,623.97,444.82z"/>
	<path class="st8" d="M576.93,496.5c1.59,1.15,3.43,2.68,5.29,4.68c2.09,2.25,3.6,4.45,4.68,6.28c0.85-0.8,3.07-2.67,6.53-3.32
		c3.67-0.69,6.57,0.4,7.63,0.86c0.28-0.95,0.58-2.43,0.37-4.19c-0.24-2.07-0.99-2.82-0.74-3.94c0.23-1.01,1.28-2.31,5.17-3.32
		c-3.39-10.31-6.8-12.98-9.36-13.42c-1.55-0.27-4.37,0.01-6.9-1.97c-1.34-1.05-1.7-2.03-2.83-2.09c-1.39-0.08-2.53,1.3-4.31,3.45
		c-1.4,1.7-2.11,2.54-2.59,3.82c-0.95,2.53-0.09,3.87-0.37,6.65C579.36,491.57,578.8,493.84,576.93,496.5z"/>
	<path class="st9" d="M572.91,537.67c2.82-2.14-0.53-7.41,1.64-15.43c1.74-6.43,6.03-10.93,9.52-13.79
		c-0.38-0.57-7.48-10.73-19.54-10.18c-9.39,0.43-17.73,7.15-20.52,16.75c1.52,3.52,4.34,8.86,9.52,13.79
		C559.19,534.19,569.14,540.52,572.91,537.67z"/>
	<path class="st10" d="M549.96,498.84c1.53-1.42,5.51-4.7,11.33-5.17c2.07-0.17,3.88,0.06,5.29,0.37c0.48-0.53,4.41-5.02,3.2-10.71
		c-1.14-5.36-6.02-7.93-6.65-8.25c-2.55-1.29-3.54-0.57-7.63-2.46c-2.89-1.34-3.38-2.15-4.68-1.97c-2.54,0.35-3.97,3.94-5.29,7.27
		c-1.99,5.01-3.25,8.16-2.22,12.19C544.6,495.12,548.54,497.93,549.96,498.84z"/>
	<path class="st10" d="M545.78,503.64c-1.73-0.9-5.34-3.09-7.51-7.39c-2.8-5.56-1.39-11.04-0.62-14.04
		c1.22-4.72,3.57-8.17,5.42-10.34c0.57-1.06,1.22-2.55,1.6-4.43c0.55-2.71,0.28-5,0-6.4c-0.3-1.19,0.29-2.39,1.29-2.83
		c1.17-0.51,2.7,0.11,3.2,1.48c0.68,1.08,1.82,2.67,3.57,4.19c3.86,3.35,7.12,3.28,11.57,5.36c1.6,0.74,7.36,3.43,10.1,8.31
		c3.91,6.99,0.05,15.68-0.99,17.86c-0.99-0.25-1.97-0.49-2.96-0.74c0.85-1.18,4.22-6.17,2.83-11.88c-1.36-5.59-6.49-8.59-8.74-9.91
		c-3.65-2.13-5.28-1.65-9.6-4.13c-3.26-1.86-5.56-3.98-6.96-5.42c0.07,1.43,0.04,3.6-0.62,6.1c-1.43,5.46-4.27,6.44-6.22,11.51
		c-0.61,1.6-2.54,6.62-0.62,11.94c1.8,4.98,5.99,7.5,7.51,8.31C547.3,502,546.54,502.82,545.78,503.64z"/>
	<path class="st11" d="M578.84,479.02c0.92-2.41,2.26-3.87,3.08-4.62c0.96-0.88,1.72-1.57,2.89-1.79c2.01-0.36,2.95,1.11,4.25,0.62
		c1.32-0.5,1.32-2.38,2.15-4.43c0.7-1.71,2.13-3.94,5.42-6.03c-0.14-0.72-1.22-5.77-6.16-8.5c-4.46-2.46-8.82-1.22-9.6-0.99
		c1.1,0.96,2.65,2.52,3.94,4.8c1.07,1.88,1.61,3.64,1.91,4.93c-0.31-0.81-2.07-5.22-6.83-7.14c-0.55-0.22-6.75-2.6-11.39,1.42
		c-3.73,3.23-3.55,8.09-3.51,8.74c2,0.92,4.71,2.42,7.45,4.86C575.71,473.81,577.7,476.89,578.84,479.02z"/>
	<path class="st1" d="M578.45,453.16c0.27-1.83,0.55-3.67,0.82-5.5c0.38-1.15-0.34-2.22-1.15-2.34c-0.71-0.1-1.58,0.51-1.77,1.52
		c-0.03,1.07-0.05,2.13-0.08,3.2c-0.54-1.05-2.69-4.93-7.47-6.85c-4.03-1.63-7.61-0.92-8.87-0.62c0.57,1.26,2.44,4.96,6.77,7.39
		c4.14,2.32,8.08,2.11,9.48,1.97C576.94,452.34,577.7,452.75,578.45,453.16z"/>
	<path class="st1" d="M585.06,449.34c-0.41-0.32-2.48-2-2.79-4.93c-0.42-3.9,2.67-6.41,2.87-6.57c1.32,0.8,3.02,2.03,4.68,3.86
		c1.26,1.38,2.15,2.73,2.79,3.86c-0.23-1.05-0.85-4.48,0.99-8.05c2.69-5.21,8.3-6.22,8.95-6.32c0.5,0.56,3.79,4.31,3.12,9.69
		c-0.55,4.39-3.37,7-4.1,7.63c0.92-0.81,3.02-2.4,6.07-2.79c1.29-0.16,2.42-0.07,3.28,0.08c-0.91,2.35-2.71,6.04-6.24,9.44
		c-1.82,1.75-3.64,2.99-5.17,3.86c-1.12-1.67-2.24-3.34-3.37-5.01c1.02-2.77,1.98-6.07,2.63-9.85c0.33-1.95,0.54-3.79,0.66-5.5
		c-1.21,2.44-2.42,5.29-3.45,8.54c-0.58,1.81-1.03,3.54-1.4,5.17c-1.09-0.85-2.97-2.07-5.58-2.71
		C587.47,449.38,586.11,449.31,585.06,449.34z"/>
	<path class="st1" d="M575.08,542.12c0.28,1.12,0.79,2.49,1.72,3.88c0.24,0.36,0.49,0.69,0.74,0.99c-1.34,1.2-3.11,3.06-4.68,5.66
		c-1.57,2.6-2.39,5.03-2.83,6.77c1.28-1.97,2.97-4.21,5.17-6.46c1.33-1.36,2.64-2.52,3.88-3.51c1.99,1.58,3.98,3.16,5.97,4.74
		c-1.01,2.14-3.42,6.51-8.37,10.04c-5.72,4.07-11.5,4.64-13.85,4.74c-0.46-1.78-2.17-9.3,2.03-17.05
		C568.13,545.88,573.15,543.08,575.08,542.12z"/>
</g>
</svg>
