<?xml version="1.0" encoding="utf-8"?>
<!-- Generator: Adobe Illustrator 26.0.1, SVG Export Plug-In . SVG Version: 6.00 Build 0)  -->
<svg version="1.1" id="Layer_1" xmlns="http://www.w3.org/2000/svg" xmlns:xlink="http://www.w3.org/1999/xlink" x="0px" y="0px"
	 viewBox="0 0 1080 1080" style="enable-background:new 0 0 1080 1080;" xml:space="preserve">
<style type="text/css">
	.st0{fill:#D5722B;}
	.st1{fill:#0B4D2C;}
	.st2{fill:#E5934A;}
	.st3{fill:#9A2B31;}
	.st4{fill:#847E40;}
	.st5{fill:#7F7B3C;}
	.st6{fill:#E6903D;}
	.st7{fill:#A64B38;}
	.st8{fill:#642B3C;}
	.st9{fill:#D2643F;}
</style>
<g>
	<path class="st1" d="M567.89,772.45c1.75-2.32,4.26-5.16,7.69-7.91c2.68-2.15,5.27-3.7,7.47-4.83
		c-18.08-7.87-47.21-23.28-73.57-52.26c-52.64-57.88-69.39-142.6-47.43-214.77c8.22-27.01,27.34-89.87,87.84-113.31
		c49.17-19.05,95.8-0.49,108.92,5.27c-3.44-2.45-60.38-41.57-123.85-14.93c-40.26,16.89-58.01,51.93-71.15,78.18
		c-28.88,57.67-41.72,144.27,0,223.11C495.46,730.84,545.03,760.66,567.89,772.45z"/>
	<path class="st1" d="M692.18,353.61c-14.58-9.59-82.08-51.8-159.28-31.04c-114.33,30.75-140.33,170.13-143.47,188.56
		c-19.51,114.35,48.64,203.28,57.39,214.33c4.74,5.99,8.97,10.76,12,14.05c-15.8-9.62-36.66-25.28-54.75-49.78
		c-44.27-59.93-38.62-127.6-36.31-146.98c-4.58,20.82-9.86,59.37,3.51,103.65c5.63,18.63,19.59,64.88,63.83,94.87
		c15.92,10.79,31.13,16.34,41.58,19.32c7.61,8.91,21.27,22.45,42.16,32.21c12.18,5.69,23.42,8.5,32.21,9.96
		c1.76-5.08,3.51-10.15,5.27-15.23c-21.96-9.65-65.47-32.36-100.72-79.64c-49.64-66.6-49.58-137.27-49.19-162.21
		c0.44-28.57,1.37-87.8,43.33-142.89c29.92-39.27,66.9-58.31,86.67-66.76c-14.96,9.33-37.57,26.24-56.51,54.17
		c-32.31,47.62-33.16,96.63-32.5,115.36c12.88-29.47,25.77-58.95,38.65-88.42c2.44-8.32,6.99-20.34,15.81-32.79
		c0,0,18.77-26.5,52.12-40.11c59.08-24.12,120.68,14.35,126.34,18.01C684.28,359.37,688.23,356.49,692.18,353.61z"/>
	<path class="st1" d="M504.2,783.44c-20.11-2.38-55.83-9.61-90.47-35.15c-71.37-52.59-77.68-138.33-78.46-151.96
		c-1.89,16.09-2.36,38.35,3.79,63.54c14.35,58.74,54.85,93.03,70.28,104.82c-13.26-3.09-75.57-19.18-115.37-80.79
		c-7.83-12.13-44.54-72.06-24-147c22.83-83.32,97.4-115.66,106.58-119.45c-10.62,10.82-29.78,33.29-40.42,67.64
		c-9.2,29.78-7.95,55.42-6.15,69.97c2.4-20.35,9.67-58.72,35.87-98.38c30.52-46.22,70.05-68.93,88.73-78.17
		c12.89-11.87,25.76-23.73,38.65-35.58c-11.13,4.76-28.04,12.5-47.88,23.71c-23.55,13.32-25.97,17.26-41.28,25.03
		c-23.32,11.85-48.66,24.72-76.86,18.02c-21.64-5.14-47.55-22.4-52.26-48.31c-0.84-4.53-4.49-28.35,11.85-40.42
		c12.44-9.16,31.89-8.16,47.45,3.53c2.85-4.86,9.24-17.32,6.15-31.62c-5.02-23.02-30.91-33.53-46.57-36.01
		c-8.2-1.31-26.73-2.5-54.89,15.37c-55.01,34.86-75.77,97.33-80.24,111.85c-36.89,120,34.51,233.47,45.69,250.64
		c64.23,98.79,161.22,132.32,198.52,145.21c60.03,20.76,113.2,23.84,148.14,23.14L504.2,783.44z M302.62,270.02
		c12.63,1.13,24.1,14.98,27.87,34.7c-3.14-2.19-11.72-7.54-23.06-6.6c-3.98,0.33-7.32,1.35-9.88,2.42c0.96-2.15,2.6-6.64,1.99-12.3
		c-1-9.08-7.05-14.53-8.57-15.8C295.96,269.98,299.98,269.77,302.62,270.02z M268.8,274.84c1.6,0.18,9.74,1.29,15.58,8.57
		c6.29,7.85,5.06,16.79,4.84,18.24c-2.13,0.86-5.39,2.48-8.57,5.47c-2.6,2.46-4.24,4.98-5.27,6.83c-1.41-3.57-5.12-11.5-13.61-18.02
		c-8.77-6.72-17.73-8.18-21.52-8.57C249.76,283.2,259.27,279.02,268.8,274.84z M215,309.99c2.73-1.8,23.55-15.06,39.31-4.61
		c9,5.98,11.42,16.46,12.07,19.98c-1.68,6.35-3.36,12.73-5.06,19.1c-3.26-3.5-12.54-12.52-27.67-15.6
		c-19.31-3.94-34.29,4.69-37.75,6.8C197.6,330.48,202.48,318.21,215,309.99z M184.46,364.73c6.11-7.56,20.56-25.52,41.87-24
		c14.16,0.98,26.71,10.25,33.39,21.38c3.94,6.54,5.31,12.85,5.86,16.97c-7.99-2.32-26.19-6.37-47.73-0.29
		c-30.01,8.49-45.48,30.72-49.48,36.89C168.09,407.53,168.43,384.63,184.46,364.73z M169.09,447c5.39-14.12,16.79-44.07,47-54.46
		c39.66-13.61,76.41,18.61,78.19,20.21c-12.42,3.16-50.67,14.59-79.93,51.83c-33.53,42.63-31.91,89.44-31.2,101
		C176.98,554.79,148.21,501.93,169.09,447z M231.32,646.41c-12.44-20.27-42.86-79.07-19.33-141.71c4.37-11.6,21.42-57,67.94-74.95
		c23.61-9.12,45.27-7.5,57.39-5.57c-9.16,5.9-82.91,55.2-90.49,147.57c-5.55,67.84,28.02,116.76,37.77,130
		C270.97,692.52,248.92,675.08,231.32,646.41z"/>
	<path class="st2" d="M657.05,728.97c3.43-34.27,24.57-61.3,52.26-68.51c2.62-0.68,31.01-7.63,50.07,9.22
		c24.86,21.98,14.42,67.27,1.32,91.79c-15.42,28.87-49.32,56.67-78.18,50.51c-12.93-2.76-24.69-12.31-38.21-23.28
		c-8.39-6.81-17.41-14.13-23.72-23.28c-16.31-23.66-21.17-69.22,7.03-98.82c29.88-31.37,74.76-21.58,76.86-21.08
		c-4.67,1.32-26.9,8.14-40.41,31.18C649.97,700.76,655.87,724.59,657.05,728.97z"/>
	<path class="st1" d="M714.58,650.36c0.89-7.25,1.16-16.64-0.88-27.23c-0.72-3.72-1.63-7.15-2.64-10.25
		c-0.17-0.12-3.13-2.21-2.93-5.56c0.2-3.3,3.35-5.7,5.86-5.71c3.6-0.02,5.99,4.88,7.47,7.91c1.98,4.06,5.18,12.83,2.2,26.64
		c1.74-3.27,13.4-24.3,38.36-29.72c16.08-3.49,29.2,1.34,34.26,3.51c-2.55,4.96-12.43,22.71-34.26,31.62
		c-17.22,7.03-32.57,4.76-38.65,3.51C720.44,646.85,717.51,648.6,714.58,650.36z"/>
	<path class="st3" d="M756.74,594.14c9.79-1.6,27.38-2.89,45.9,5.27c4.81,2.12,8.97,4.56,12.52,7.03
		c-4.62,9.31-12.8,22.8-26.79,35.36c-8.28,7.44-16.47,12.64-23.28,16.25c12.54-0.09,43.06,1.5,70.71,22.62
		c10.07,7.69,17.31,16.1,22.4,23.28c8.52-2.16,39.52-11.12,58.85-41.28c4.98-7.77,17.83-27.82,14.05-54.9
		c-3.54-25.33-19.43-40.98-24.59-45.68c-2.73-3.3-3.04-6.2-3.07-7.47c-0.17-6.47,5.94-13.15,15.37-15.52
		c1.74-0.46,4.71-1.45,4.98-3.22c0.4-2.64-5.41-5.69-9.37-6.88c-2.29-0.69-7.17-1.73-13.76,0.29c0.2-5.43,0.39-10.86,0.59-16.29
		c0.08-0.26,0.73-2.37-0.33-3.62c-1.19-1.4-4.33-1.48-6.81,0.88c-4.1,3.33-8.2,6.66-12.3,9.99c-3.77-4.98-7.54-9.95-11.31-14.93
		c-0.96-2.55-3.57-3.45-5.05-2.64c-1.05,0.58-1.63,2.06-1.43,3.62c0.11,6.83,0.22,13.66,0.33,20.5c-0.2,0.76-0.94,3.23-3.37,4.98
		c-3.33,2.4-7.09,1.46-7.61,1.32c-5.97-1.66-30.33-7.69-55.78,5.27C764.5,555.22,757.51,589.94,756.74,594.14z"/>
	<path class="st4" d="M775.63,672.32c3.66,6.91,17.1,34.27,8.34,67.64c-5.61,21.4-17.74,35.31-24.16,41.72
		c9.45,8,17.88,11.01,23.72,12.3c15.31,3.39,22.04-3.02,35.57,3.07c3.6,1.62,7.56,4.07,13.18,3.51c1.6-0.16,7.69-1,11.42-5.71
		c3.81-4.83,1.68-9.35,3.51-18.89c1.49-7.76,4.31-12.14,5.71-15.37c6.44-14.91-0.29-45.26-19.76-65.44
		C810.59,671.76,780.67,672.17,775.63,672.32z"/>
	<path class="st1" d="M865,727.22c-0.48,5.45-0.68,17.4,6.81,27.67c11.31,15.53,35.67,21.06,59.29,11.64
		c-0.63-3.67-5.54-29.88-30.09-43.7c-17.08-9.61-33.81-7.68-39.31-6.81c4.46,1.7,11.63,5.07,18.67,11.64
		c7.29,6.81,11.2,14.03,13.18,18.45C884.04,739.81,874.52,733.51,865,727.22z"/>
	<path class="st5" d="M742.25,597.65c1.31-8.91,6.22-34.02,27.67-54.9c13.47-13.12,27.91-19.16,36.45-21.96
		c-3.16-13.32-5.82-29.81-6.15-48.75c-0.2-11.24,0.46-21.51,1.54-30.63c-1.61-15.57-12.21-27.99-25.69-30.85
		c-13.66-2.9-24.58,5.23-26.35,6.59c-3.14,6.51-8.66,16.65-17.57,27.45c-15.74,19.07-27.98,23.11-43.04,40.19
		c-6.44,7.3-15.2,19.03-22.4,36.67c13.46,8.21,33.69,23.16,50.07,48.09c7.23,11.01,12.17,21.61,15.59,30.74
		c1.07,1.89,3.06,3.02,5.05,2.85C739.98,602.93,742.16,600.6,742.25,597.65z"/>
	<path class="st1" d="M818.96,518.16c-0.94-2.74-7.29-22.38,4.39-41.87c11.86-19.79,32.63-23.29,35.43-23.72
		c0.82,3.38,5.34,23.51-7.32,42.75C840.17,512.49,822.93,517.19,818.96,518.16z"/>
	<path class="st1" d="M796.71,394.01c4.41-2.59,9.68-5.27,15.81-7.61c10.51-4.01,20.07-5.72,27.52-6.44
		c-7.87,2.55-17.6,6.6-27.82,13.18c-5.73,3.69-10.59,7.52-14.64,11.13c3.97,1.58,21.51,8.06,41.58,0.29
		c22.45-8.68,30.84-28.53,32.21-31.91c-2.12-1.36-23.52-14.62-47.43-4.98C805.96,374.91,798.39,390.34,796.71,394.01z"/>
	<path class="st1" d="M778.26,414.22c-0.78-0.17,2.51-10.43,0.29-26.35c-0.95-6.84-2.61-12.51-4.1-16.69
		c-0.74-0.86-4.77-5.7-3.22-9.37c1.78-4.23,10.45-5.71,14.64-2.93C797.9,366.86,779.96,414.58,778.26,414.22z"/>
	<path class="st6" d="M610.49,598.53c5.66,4.09,12.25,9.55,18.89,16.69c7.46,8.02,12.85,15.88,16.69,22.4
		c3.05-2.87,10.95-9.53,23.28-11.86c13.1-2.47,23.44,1.43,27.23,3.07c0.98-3.4,2.05-8.67,1.32-14.93
		c-0.87-7.37-3.53-10.07-2.64-14.05c0.81-3.61,4.55-8.25,18.45-11.86c-12.1-36.76-24.26-46.28-33.38-47.87
		c-5.54-0.97-15.58,0.02-24.59-7.03c-4.79-3.75-6.06-7.24-10.1-7.47c-4.96-0.28-9.02,4.62-15.37,12.3
		c-5.01,6.05-7.51,9.07-9.22,13.61c-3.4,9.01-0.32,13.82-1.32,23.72C619.14,580.94,617.15,589.04,610.49,598.53z"/>
	<path class="st7" d="M596.14,745.37c10.07-7.63-1.9-26.42,5.86-55.05c6.21-22.92,21.5-38.97,33.96-49.19
		c-1.37-2.03-26.67-38.26-69.69-36.31c-33.48,1.52-63.25,25.51-73.2,59.73c5.41,12.55,15.48,31.59,33.96,49.19
		C547.21,732.95,582.72,755.54,596.14,745.37z"/>
	<path class="st8" d="M514.31,606.88c5.47-5.07,19.64-16.75,40.41-18.45c7.38-0.6,13.82,0.2,18.89,1.32
		c1.71-1.89,15.74-17.91,11.42-38.21c-4.06-19.12-21.48-28.29-23.72-29.43c-9.11-4.62-12.62-2.02-27.23-8.78
		c-10.29-4.76-12.06-7.67-16.69-7.03c-9.07,1.26-14.17,14.07-18.89,25.91c-7.11,17.86-11.59,29.11-7.91,43.48
		C495.19,593.63,509.23,603.62,514.31,606.88z"/>
	<path class="st8" d="M499.37,624.01c-6.18-3.19-19.05-11.01-26.79-26.35c-10-19.83-4.96-39.37-2.2-50.07
		c4.34-16.82,12.74-29.13,19.32-36.89c2.02-3.77,4.35-9.11,5.71-15.81c1.96-9.67,1-17.83,0-22.84c-1.07-4.24,1.03-8.53,4.61-10.1
		c4.19-1.83,9.62,0.4,11.42,5.27c2.43,3.87,6.49,9.51,12.74,14.93c13.76,11.94,25.39,11.71,41.28,19.1
		c5.7,2.65,26.26,12.23,36.01,29.65c13.95,24.92,0.19,55.92-3.51,63.68c-3.51-0.88-7.03-1.76-10.54-2.64
		c3.03-4.22,15.07-22,10.1-42.38c-4.86-19.95-23.14-30.65-31.18-35.36c-13-7.61-18.82-5.9-34.26-14.71
		c-11.64-6.64-19.84-14.19-24.81-19.32c0.26,5.11,0.14,12.85-2.2,21.74c-5.12,19.47-15.24,22.97-22.18,41.06
		c-2.18,5.69-9.06,23.62-2.2,42.6c6.42,17.78,21.37,26.74,26.79,29.65C504.79,618.15,502.08,621.08,499.37,624.01z"/>
	<path class="st9" d="M617.3,536.17c3.27-8.6,8.07-13.8,10.98-16.47c3.42-3.14,6.12-5.62,10.32-6.37c7.18-1.29,10.52,3.95,15.15,2.2
		c4.71-1.78,4.7-8.48,7.69-15.81c2.48-6.1,7.6-14.04,19.32-21.52c-0.5-2.56-4.36-20.59-21.96-30.3
		c-15.91-8.79-31.45-4.37-34.26-3.51c3.94,3.41,9.44,8.98,14.05,17.13c3.81,6.72,5.76,12.97,6.81,17.57
		c-1.1-2.9-7.37-18.61-24.37-25.47c-1.95-0.79-24.08-9.29-40.63,5.05c-13.31,11.53-12.65,28.84-12.52,31.18
		c7.15,3.27,16.81,8.63,26.57,17.35C606.15,517.62,613.23,528.6,617.3,536.17z"/>
	<path class="st1" d="M615.91,443.94c0.98-6.54,1.95-13.08,2.93-19.62c1.37-4.09-1.23-7.92-4.1-8.34c-2.51-0.37-5.63,1.82-6.3,5.42
		c-0.1,3.81-0.2,7.61-0.29,11.42c-1.92-3.73-9.58-17.57-26.64-24.45c-14.38-5.8-27.13-3.3-31.62-2.2
		c2.04,4.5,8.71,17.68,24.16,26.35c14.78,8.29,28.82,7.53,33.82,7.03C610.54,441.01,613.22,442.47,615.91,443.94z"/>
	<path class="st1" d="M639.48,430.32c-1.47-1.15-8.83-7.15-9.96-17.57c-1.5-13.93,9.53-22.86,10.25-23.42
		c4.7,2.86,10.77,7.25,16.69,13.76c4.48,4.92,7.68,9.74,9.95,13.76c-0.83-3.75-3.04-15.98,3.51-28.69
		c9.58-18.58,29.61-22.17,31.92-22.55c1.8,1.98,13.52,15.36,11.13,34.55c-1.95,15.65-12.03,24.95-14.64,27.23
		c3.29-2.88,10.77-8.57,21.67-9.95c4.61-0.59,8.63-0.25,11.71,0.29c-3.25,8.39-9.67,21.55-22.25,33.67
		c-6.48,6.24-12.98,10.66-18.45,13.76c-4-5.95-8-11.91-12-17.86c3.63-9.88,7.07-21.66,9.37-35.14c1.18-6.95,1.92-13.52,2.34-19.62
		c-4.31,8.71-8.62,18.88-12.3,30.45c-2.05,6.46-3.68,12.64-4.98,18.45c-3.89-3.02-10.6-7.39-19.91-9.66
		C648.07,430.45,643.22,430.21,639.48,430.32z"/>
	<path class="st1" d="M603.9,761.26c1.01,3.98,2.82,8.89,6.15,13.83c0.86,1.28,1.75,2.45,2.64,3.51
		c-4.77,4.3-11.08,10.91-16.69,20.2c-5.61,9.29-8.52,17.94-10.1,24.16c4.56-7.01,10.58-15,18.45-23.06c4.74-4.86,9.43-9,13.83-12.52
		c7.1,5.64,14.2,11.27,21.3,16.91c-3.59,7.63-12.21,23.23-29.86,35.79c-20.4,14.51-41.02,16.54-49.41,16.91
		c-1.63-6.35-7.73-33.19,7.25-60.83C579.1,774.67,597.02,764.66,603.9,761.26z"/>
</g>
</svg>
