<?xml version="1.0" encoding="utf-8"?>
<!-- Generator: Adobe Illustrator 26.0.1, SVG Export Plug-In . SVG Version: 6.00 Build 0)  -->
<svg version="1.1" id="Layer_1" xmlns="http://www.w3.org/2000/svg" xmlns:xlink="http://www.w3.org/1999/xlink" x="0px" y="0px"
	 viewBox="0 0 1080 1080" style="enable-background:new 0 0 1080 1080;" xml:space="preserve">
<style type="text/css">
	.st0{fill:#D5722B;}
	.st1{fill:#0B4D2C;}
	.st2{fill:#E5934A;}
	.st3{fill:#9A2B31;}
	.st4{fill:#847E40;}
	.st5{fill:#7F7B3C;}
	.st6{fill:#E6903D;}
	.st7{fill:#A64B38;}
	.st8{fill:#642B3C;}
	.st9{fill:#D2643F;}
</style>
<g>
	<rect x="-1053.63" y="702.82" class="st0" width="935.3" height="8.32"/>
	<text transform="matrix(1 0 0 1 -1056.1277 683.8696)" class="st1" style="font-family:'NexaLight'; font-size:92.4685px;">CORNUCOPIALOCAL</text>
</g>
<g>
	<path class="st1" d="M-576.73,545.26c0.49-0.65,1.19-1.45,2.15-2.22c0.75-0.6,1.48-1.04,2.09-1.35
		c-5.07-2.21-13.24-6.53-20.63-14.65c-14.76-16.23-19.46-39.98-13.3-60.21c2.3-7.57,7.67-25.2,24.63-31.77
		c13.79-5.34,26.86-0.14,30.54,1.48c-0.97-0.69-16.93-11.65-34.72-4.19c-11.29,4.74-16.26,14.56-19.95,21.92
		c-8.1,16.17-11.7,40.45,0,62.55C-597.04,533.6-583.14,541.96-576.73,545.26z"/>
	<path class="st1" d="M-541.88,427.83c-4.09-2.69-23.01-14.52-44.66-8.7c-32.05,8.62-39.34,47.7-40.23,52.87
		c-5.47,32.06,13.64,56.99,16.09,60.09c1.33,1.68,2.52,3.02,3.37,3.94c-4.43-2.7-10.28-7.09-15.35-13.96
		c-12.41-16.8-10.83-35.78-10.18-41.21c-1.29,5.84-2.76,16.64,0.98,29.06c1.58,5.22,5.49,18.19,17.9,26.6
		c4.46,3.02,8.73,4.58,11.66,5.42c2.13,2.5,5.96,6.3,11.82,9.03c3.41,1.59,6.57,2.38,9.03,2.79c0.49-1.42,0.99-2.85,1.48-4.27
		c-6.16-2.71-18.36-9.07-28.24-22.33c-13.92-18.67-13.9-38.49-13.79-45.48c0.12-8.01,0.38-24.62,12.15-40.06
		c8.39-11.01,18.76-16.35,24.3-18.72c-4.19,2.62-10.53,7.36-15.84,15.19c-9.06,13.35-9.3,27.09-9.11,32.34
		c3.61-8.26,7.22-16.53,10.84-24.79c0.68-2.33,1.96-5.7,4.43-9.19c0,0,5.26-7.43,14.61-11.25c16.56-6.76,33.84,4.02,35.42,5.05
		C-544.1,429.45-542.99,428.64-541.88,427.83z"/>
	<path class="st1" d="M-594.59,548.34c-5.64-0.67-15.65-2.7-25.36-9.86c-20.01-14.75-21.78-38.78-22-42.6
		c-0.53,4.51-0.66,10.75,1.06,17.81c4.02,16.47,15.38,26.08,19.7,29.39c-3.72-0.87-21.19-5.38-32.35-22.65
		c-2.2-3.4-12.49-20.2-6.73-41.21c6.4-23.36,27.31-32.43,29.88-33.49c-2.98,3.03-8.35,9.33-11.33,18.96
		c-2.58,8.35-2.23,15.54-1.72,19.62c0.67-5.71,2.71-16.46,10.06-27.58c8.56-12.96,19.64-19.33,24.88-21.92
		c3.61-3.33,7.22-6.65,10.84-9.98c-3.12,1.33-7.86,3.51-13.42,6.65c-6.6,3.74-7.28,4.84-11.57,7.02
		c-6.54,3.32-13.64,6.93-21.55,5.05c-6.07-1.44-13.33-6.28-14.65-13.54c-0.24-1.27-1.26-7.95,3.32-11.33
		c3.49-2.57,8.94-2.29,13.3,0.99c0.8-1.36,2.59-4.86,1.72-8.87c-1.41-6.45-8.67-9.4-13.06-10.1c-2.3-0.37-7.49-0.7-15.39,4.31
		c-15.42,9.77-21.24,27.29-22.5,31.36c-10.34,33.65,9.68,65.46,12.81,70.27c18.01,27.7,45.2,37.1,55.66,40.71
		c16.83,5.82,31.74,6.68,41.54,6.49L-594.59,548.34z M-651.1,404.4c3.54,0.32,6.76,4.2,7.82,9.73c-0.88-0.61-3.29-2.11-6.46-1.85
		c-1.11,0.09-2.05,0.38-2.77,0.68c0.27-0.6,0.73-1.86,0.56-3.45c-0.28-2.55-1.98-4.07-2.4-4.43
		C-652.97,404.38-651.84,404.33-651.1,404.4z M-660.58,405.75c0.45,0.05,2.73,0.36,4.37,2.4c1.76,2.2,1.42,4.71,1.36,5.11
		c-0.6,0.24-1.51,0.7-2.4,1.53c-0.73,0.69-1.19,1.4-1.48,1.91c-0.4-1-1.44-3.22-3.82-5.05c-2.46-1.88-4.97-2.29-6.03-2.4
		C-665.92,408.09-663.26,406.92-660.58,405.75z M-675.67,415.6c0.76-0.51,6.6-4.22,11.02-1.29c2.52,1.68,3.2,4.61,3.38,5.6
		c-0.47,1.78-0.94,3.57-1.42,5.36c-0.91-0.98-3.52-3.51-7.76-4.37c-5.41-1.1-9.61,1.32-10.58,1.91
		C-680.55,421.35-679.18,417.9-675.67,415.6z M-684.23,430.95c1.71-2.12,5.76-7.15,11.74-6.73c3.97,0.28,7.49,2.87,9.36,5.99
		c1.1,1.83,1.49,3.6,1.64,4.76c-2.24-0.65-7.34-1.79-13.38-0.08c-8.41,2.38-12.75,8.61-13.87,10.34
		C-688.82,442.95-688.72,436.53-684.23,430.95z M-688.54,454.02c1.51-3.96,4.71-12.35,13.18-15.27c11.12-3.82,21.42,5.22,21.92,5.67
		c-3.48,0.88-14.21,4.09-22.41,14.53c-9.4,11.95-8.95,25.08-8.75,28.32C-686.33,484.24-694.4,469.42-688.54,454.02z M-671.09,509.92
		c-3.49-5.68-12.02-22.17-5.42-39.73c1.22-3.25,6-15.98,19.05-21.01c6.62-2.56,12.69-2.1,16.09-1.56
		c-2.57,1.65-23.24,15.48-25.37,41.37c-1.56,19.02,7.86,32.74,10.59,36.45C-659.97,522.85-666.16,517.96-671.09,509.92z"/>
	<path class="st2" d="M-551.73,533.07c0.96-9.61,6.89-17.19,14.65-19.21c0.74-0.19,8.69-2.14,14.04,2.59
		c6.97,6.16,4.04,18.86,0.37,25.74c-4.32,8.09-13.83,15.89-21.92,14.16c-3.62-0.77-6.92-3.45-10.71-6.53
		c-2.35-1.91-4.88-3.96-6.65-6.53c-4.57-6.63-5.94-19.41,1.97-27.71c8.38-8.8,20.96-6.05,21.55-5.91
		c-1.31,0.37-7.54,2.28-11.33,8.74C-553.71,525.16-552.06,531.84-551.73,533.07z"/>
	<path class="st1" d="M-535.6,511.03c0.25-2.03,0.33-4.66-0.25-7.63c-0.2-1.04-0.46-2-0.74-2.87c-0.05-0.03-0.88-0.62-0.82-1.56
		c0.06-0.93,0.94-1.6,1.64-1.6c1.01-0.01,1.68,1.37,2.09,2.22c0.55,1.14,1.45,3.6,0.62,7.47c0.49-0.92,3.76-6.81,10.75-8.33
		c4.51-0.98,8.19,0.37,9.6,0.99c-0.71,1.39-3.48,6.37-9.6,8.87c-4.83,1.97-9.13,1.33-10.84,0.99
		C-533.96,510.05-534.78,510.54-535.6,511.03z"/>
	<path class="st3" d="M-523.78,495.27c2.74-0.45,7.68-0.81,12.87,1.48c1.35,0.59,2.51,1.28,3.51,1.97
		c-1.29,2.61-3.59,6.39-7.51,9.91c-2.32,2.09-4.62,3.54-6.53,4.56c3.52-0.02,12.07,0.42,19.83,6.34c2.82,2.16,4.85,4.51,6.28,6.53
		c2.39-0.61,11.08-3.12,16.5-11.57c1.4-2.18,5-7.8,3.94-15.39c-0.99-7.1-5.45-11.49-6.9-12.81c-0.76-0.92-0.85-1.74-0.86-2.09
		c-0.05-1.81,1.67-3.69,4.31-4.35c0.49-0.13,1.32-0.41,1.4-0.9c0.11-0.74-1.52-1.59-2.63-1.93c-0.64-0.19-2.01-0.49-3.86,0.08
		c0.05-1.52,0.11-3.04,0.16-4.57c0.02-0.07,0.21-0.67-0.09-1.02c-0.33-0.39-1.21-0.41-1.91,0.25c-1.15,0.93-2.3,1.87-3.45,2.8
		c-1.06-1.4-2.11-2.79-3.17-4.19c-0.27-0.72-1-0.97-1.42-0.74c-0.29,0.16-0.46,0.58-0.4,1.02c0.03,1.92,0.06,3.83,0.09,5.75
		c-0.06,0.21-0.26,0.91-0.94,1.4c-0.93,0.67-1.99,0.41-2.13,0.37c-1.68-0.47-8.5-2.16-15.64,1.48
		C-521.6,484.36-523.56,494.09-523.78,495.27z"/>
	<path class="st4" d="M-518.48,517.19c1.03,1.94,4.79,9.61,2.34,18.96c-1.57,6-4.97,9.9-6.77,11.7c2.65,2.24,5.01,3.09,6.65,3.45
		c4.29,0.95,6.18-0.85,9.97,0.86c1.01,0.45,2.12,1.14,3.69,0.99c0.45-0.04,2.16-0.28,3.2-1.6c1.07-1.35,0.47-2.62,0.99-5.29
		c0.42-2.17,1.21-3.4,1.6-4.31c1.8-4.18-0.08-12.69-5.54-18.35C-508.68,517.03-517.07,517.15-518.48,517.19z"/>
	<path class="st1" d="M-493.43,532.58c-0.13,1.53-0.19,4.88,1.91,7.76c3.17,4.35,10,5.91,16.62,3.26
		c-0.18-1.03-1.55-8.38-8.44-12.25c-4.79-2.7-9.48-2.15-11.02-1.91c1.25,0.48,3.26,1.42,5.23,3.26c2.05,1.91,3.14,3.93,3.69,5.17
		C-488.09,536.11-490.76,534.35-493.43,532.58z"/>
	<path class="st5" d="M-527.84,496.25c0.37-2.5,1.74-9.54,7.76-15.39c3.78-3.68,7.83-5.37,10.22-6.16
		c-0.89-3.74-1.63-8.36-1.72-13.67c-0.05-3.15,0.13-6.03,0.43-8.59c-0.45-4.37-3.42-7.85-7.2-8.65c-3.83-0.81-6.89,1.47-7.39,1.85
		c-0.88,1.82-2.43,4.67-4.93,7.7c-4.41,5.35-7.85,6.48-12.07,11.27c-1.8,2.05-4.26,5.34-6.28,10.28c3.77,2.3,9.44,6.49,14.04,13.48
		c2.03,3.09,3.41,6.06,4.37,8.62c0.3,0.53,0.86,0.85,1.42,0.8C-528.48,497.73-527.87,497.08-527.84,496.25z"/>
	<path class="st1" d="M-506.33,473.97c-0.26-0.77-2.04-6.27,1.23-11.74c3.32-5.55,9.15-6.53,9.93-6.65
		c0.23,0.95,1.5,6.59-2.05,11.99C-500.39,472.38-505.22,473.69-506.33,473.97z"/>
	<path class="st1" d="M-512.57,439.16c1.24-0.73,2.71-1.48,4.43-2.13c2.95-1.13,5.63-1.6,7.72-1.81c-2.21,0.72-4.94,1.85-7.8,3.69
		c-1.61,1.03-2.97,2.11-4.1,3.12c1.11,0.44,6.03,2.26,11.66,0.08c6.29-2.44,8.65-8,9.03-8.95c-0.59-0.38-6.59-4.1-13.3-1.4
		C-509.98,433.8-512.1,438.13-512.57,439.16z"/>
	<path class="st1" d="M-517.75,444.82c-0.22-0.05,0.7-2.93,0.08-7.39c-0.27-1.92-0.73-3.51-1.15-4.68c-0.21-0.24-1.34-1.6-0.9-2.63
		c0.5-1.18,2.93-1.6,4.1-0.82C-512.24,431.55-517.27,444.93-517.75,444.82z"/>
	<path class="st6" d="M-564.78,496.5c1.59,1.15,3.43,2.68,5.29,4.68c2.09,2.25,3.6,4.45,4.68,6.28c0.85-0.8,3.07-2.67,6.53-3.32
		c3.67-0.69,6.57,0.4,7.63,0.86c0.28-0.95,0.58-2.43,0.37-4.19c-0.24-2.07-0.99-2.82-0.74-3.94c0.23-1.01,1.28-2.31,5.17-3.32
		c-3.39-10.31-6.8-12.98-9.36-13.42c-1.55-0.27-4.37,0.01-6.9-1.97c-1.34-1.05-1.7-2.03-2.83-2.09c-1.39-0.08-2.53,1.3-4.31,3.45
		c-1.4,1.7-2.11,2.54-2.59,3.82c-0.95,2.53-0.09,3.87-0.37,6.65C-562.36,491.57-562.92,493.84-564.78,496.5z"/>
	<path class="st7" d="M-568.81,537.67c2.82-2.14-0.53-7.41,1.64-15.43c1.74-6.43,6.03-10.93,9.52-13.79
		c-0.38-0.57-7.48-10.73-19.54-10.18c-9.39,0.43-17.73,7.15-20.52,16.75c1.52,3.52,4.34,8.86,9.52,13.79
		C-582.53,534.19-572.57,540.52-568.81,537.67z"/>
	<path class="st8" d="M-591.75,498.84c1.53-1.42,5.51-4.7,11.33-5.17c2.07-0.17,3.88,0.06,5.29,0.37c0.48-0.53,4.41-5.02,3.2-10.71
		c-1.14-5.36-6.02-7.93-6.65-8.25c-2.55-1.29-3.54-0.57-7.63-2.46c-2.89-1.34-3.38-2.15-4.68-1.97c-2.54,0.35-3.97,3.94-5.29,7.27
		c-1.99,5.01-3.25,8.16-2.22,12.19C-597.11,495.12-593.17,497.93-591.75,498.84z"/>
	<path class="st8" d="M-595.94,503.64c-1.73-0.9-5.34-3.09-7.51-7.39c-2.8-5.56-1.39-11.04-0.62-14.04
		c1.22-4.72,3.57-8.17,5.42-10.34c0.57-1.06,1.22-2.55,1.6-4.43c0.55-2.71,0.28-5,0-6.4c-0.3-1.19,0.29-2.39,1.29-2.83
		c1.17-0.51,2.7,0.11,3.2,1.48c0.68,1.08,1.82,2.67,3.57,4.19c3.86,3.35,7.12,3.28,11.57,5.36c1.6,0.74,7.36,3.43,10.1,8.31
		c3.91,6.99,0.05,15.68-0.99,17.86c-0.99-0.25-1.97-0.49-2.96-0.74c0.85-1.18,4.22-6.17,2.83-11.88c-1.36-5.59-6.49-8.59-8.74-9.91
		c-3.65-2.13-5.28-1.65-9.6-4.13c-3.26-1.86-5.56-3.98-6.96-5.42c0.07,1.43,0.04,3.6-0.62,6.1c-1.43,5.46-4.27,6.44-6.22,11.51
		c-0.61,1.6-2.54,6.62-0.62,11.94c1.8,4.98,5.99,7.5,7.51,8.31C-594.42,502-595.18,502.82-595.94,503.64z"/>
	<path class="st9" d="M-562.88,479.02c0.92-2.41,2.26-3.87,3.08-4.62c0.96-0.88,1.72-1.57,2.89-1.79c2.01-0.36,2.95,1.11,4.25,0.62
		c1.32-0.5,1.32-2.38,2.15-4.43c0.7-1.71,2.13-3.94,5.42-6.03c-0.14-0.72-1.22-5.77-6.16-8.5c-4.46-2.46-8.82-1.22-9.6-0.99
		c1.1,0.96,2.65,2.52,3.94,4.8c1.07,1.88,1.61,3.64,1.91,4.93c-0.31-0.81-2.07-5.22-6.83-7.14c-0.55-0.22-6.75-2.6-11.39,1.42
		c-3.73,3.23-3.55,8.09-3.51,8.74c2,0.92,4.71,2.42,7.45,4.86C-566,473.81-564.02,476.89-562.88,479.02z"/>
	<path class="st1" d="M-563.27,453.16c0.27-1.83,0.55-3.67,0.82-5.5c0.38-1.15-0.34-2.22-1.15-2.34c-0.71-0.1-1.58,0.51-1.77,1.52
		c-0.03,1.07-0.05,2.13-0.08,3.2c-0.54-1.05-2.69-4.93-7.47-6.85c-4.03-1.63-7.61-0.92-8.87-0.62c0.57,1.26,2.44,4.96,6.77,7.39
		c4.14,2.32,8.08,2.11,9.48,1.97C-564.77,452.34-564.02,452.75-563.27,453.16z"/>
	<path class="st1" d="M-556.66,449.34c-0.41-0.32-2.48-2-2.79-4.93c-0.42-3.9,2.67-6.41,2.87-6.57c1.32,0.8,3.02,2.03,4.68,3.86
		c1.26,1.38,2.15,2.73,2.79,3.86c-0.23-1.05-0.85-4.48,0.99-8.05c2.69-5.21,8.3-6.22,8.95-6.32c0.5,0.56,3.79,4.31,3.12,9.69
		c-0.55,4.39-3.37,7-4.1,7.63c0.92-0.81,3.02-2.4,6.07-2.79c1.29-0.16,2.42-0.07,3.28,0.08c-0.91,2.35-2.71,6.04-6.24,9.44
		c-1.82,1.75-3.64,2.99-5.17,3.86c-1.12-1.67-2.24-3.34-3.37-5.01c1.02-2.77,1.98-6.07,2.63-9.85c0.33-1.95,0.54-3.79,0.66-5.5
		c-1.21,2.44-2.42,5.29-3.45,8.54c-0.58,1.81-1.03,3.54-1.4,5.17c-1.09-0.85-2.97-2.07-5.58-2.71
		C-554.25,449.38-555.61,449.31-556.66,449.34z"/>
	<path class="st1" d="M-566.63,542.12c0.28,1.12,0.79,2.49,1.72,3.88c0.24,0.36,0.49,0.69,0.74,0.99c-1.34,1.2-3.11,3.06-4.68,5.66
		c-1.57,2.6-2.39,5.03-2.83,6.77c1.28-1.97,2.97-4.21,5.17-6.46c1.33-1.36,2.64-2.52,3.88-3.51c1.99,1.58,3.98,3.16,5.97,4.74
		c-1.01,2.14-3.42,6.51-8.37,10.04c-5.72,4.07-11.5,4.64-13.85,4.74c-0.46-1.78-2.17-9.3,2.03-17.05
		C-573.58,545.88-568.56,543.08-566.63,542.12z"/>
</g>
<g>
	<path class="st1" d="M-556.54,1784.74c0.58-0.76,1.4-1.7,2.53-2.6c0.88-0.71,1.73-1.22,2.46-1.59c-5.95-2.59-15.53-7.66-24.2-17.19
		c-17.32-19.04-22.83-46.91-15.6-70.65c2.7-8.89,9-29.56,28.9-37.28c16.18-6.27,31.51-0.16,35.83,1.73
		c-1.13-0.81-19.86-13.67-40.74-4.91c-13.24,5.56-19.08,17.08-23.41,25.72c-9.5,18.97-13.72,47.46,0,73.4
		C-580.37,1771.05-564.06,1780.86-556.54,1784.74z"/>
	<path class="st1" d="M-515.65,1646.96c-4.8-3.15-27-17.04-52.4-10.21c-37.61,10.11-46.16,55.97-47.2,62.03
		c-6.42,37.62,16,66.87,18.88,70.51c1.56,1.97,2.95,3.54,3.95,4.62c-5.2-3.17-12.06-8.32-18.01-16.37
		c-14.56-19.72-12.71-41.98-11.94-48.35c-1.51,6.85-3.24,19.53,1.16,34.1c1.85,6.13,6.44,21.34,21,31.21
		c5.24,3.55,10.24,5.37,13.68,6.36c2.5,2.93,7,7.39,13.87,10.6c4.01,1.87,7.71,2.8,10.6,3.27c0.58-1.67,1.16-3.34,1.73-5.01
		c-7.22-3.18-21.54-10.64-33.13-26.2c-16.33-21.91-16.31-45.16-16.18-53.36c0.15-9.4,0.45-28.88,14.26-47
		c9.84-12.92,22.01-19.18,28.51-21.96c-4.92,3.07-12.36,8.63-18.59,17.82c-10.63,15.67-10.91,31.79-10.69,37.95
		c4.24-9.7,8.48-19.39,12.71-29.09c0.8-2.74,2.3-6.69,5.2-10.79c0,0,6.18-8.72,17.15-13.2c19.44-7.93,39.7,4.72,41.56,5.92
		C-518.25,1648.85-516.95,1647.9-515.65,1646.96z"/>
	<path class="st1" d="M-577.49,1788.36c-6.61-0.78-18.37-3.16-29.76-11.56c-23.48-17.3-25.55-45.51-25.81-49.99
		c-0.62,5.29-0.78,12.62,1.25,20.9c4.72,19.32,18.04,30.6,23.12,34.48c-4.36-1.02-24.86-6.31-37.95-26.58
		c-2.58-3.99-14.65-23.71-7.9-48.36c7.51-27.41,32.04-38.05,35.06-39.3c-3.49,3.56-9.8,10.95-13.3,22.25
		c-3.03,9.8-2.62,18.23-2.02,23.02c0.79-6.7,3.18-19.32,11.8-32.36c10.04-15.2,23.05-22.67,29.19-25.72
		c4.24-3.9,8.48-7.81,12.72-11.71c-3.66,1.56-9.22,4.11-15.75,7.8c-7.75,4.38-8.54,5.68-13.58,8.23c-7.67,3.9-16.01,8.13-25.28,5.93
		c-7.12-1.69-15.64-7.37-17.19-15.89c-0.28-1.49-1.48-9.32,3.9-13.3c4.09-3.01,10.49-2.68,15.61,1.16c0.94-1.6,3.04-5.7,2.02-10.4
		c-1.65-7.57-10.17-11.03-15.32-11.85c-2.7-0.43-8.79-0.82-18.06,5.06c-18.1,11.47-24.93,32.02-26.4,36.79
		c-12.14,39.48,11.35,76.8,15.03,82.45c21.13,32.5,53.04,43.53,65.31,47.77c19.75,6.83,37.24,7.84,48.73,7.61L-577.49,1788.36z
		 M-643.8,1619.46c4.15,0.37,7.93,4.93,9.17,11.42c-1.03-0.72-3.86-2.48-7.59-2.17c-1.31,0.11-2.41,0.44-3.25,0.8
		c0.32-0.71,0.86-2.18,0.65-4.05c-0.33-2.99-2.32-4.78-2.82-5.2C-646,1619.45-644.67,1619.38-643.8,1619.46z M-654.93,1621.04
		c0.53,0.06,3.2,0.42,5.12,2.82c2.07,2.58,1.67,5.52,1.59,6c-0.7,0.28-1.77,0.82-2.82,1.8c-0.86,0.81-1.4,1.64-1.73,2.25
		c-0.47-1.17-1.69-3.78-4.48-5.93c-2.89-2.21-5.83-2.69-7.08-2.82C-661.19,1623.79-658.07,1622.42-654.93,1621.04z M-672.63,1632.61
		c0.9-0.59,7.75-4.96,12.93-1.52c2.96,1.97,3.76,5.41,3.97,6.57c-0.55,2.09-1.11,4.19-1.67,6.28c-1.07-1.15-4.13-4.12-9.1-5.13
		c-6.35-1.29-11.28,1.54-12.42,2.24C-678.35,1639.35-676.75,1635.31-672.63,1632.61z M-682.68,1650.62
		c2.01-2.49,6.76-8.39,13.78-7.9c4.66,0.32,8.79,3.37,10.98,7.03c1.29,2.15,1.75,4.23,1.93,5.58c-2.63-0.76-8.62-2.1-15.7-0.09
		c-9.87,2.79-14.96,10.11-16.28,12.14C-688.06,1664.69-687.95,1657.16-682.68,1650.62z M-687.73,1677.68
		c1.77-4.65,5.52-14.5,15.46-17.91c13.05-4.48,25.14,6.12,25.72,6.65c-4.09,1.04-16.67,4.8-26.3,17.05
		c-11.03,14.02-10.5,29.42-10.26,33.23C-685.14,1713.14-694.6,1695.75-687.73,1677.68z M-667.26,1743.28
		c-4.09-6.67-14.1-26.01-6.36-46.62c1.44-3.82,7.05-18.75,22.35-24.66c7.77-3,14.89-2.47,18.88-1.83
		c-3.01,1.94-27.27,18.16-29.77,48.55c-1.83,22.32,9.22,38.41,12.43,42.77C-654.22,1758.45-661.47,1752.71-667.26,1743.28z"/>
	<path class="st2" d="M-527.21,1770.44c1.13-11.27,8.08-20.17,17.19-22.54c0.86-0.22,10.2-2.51,16.47,3.03
		c8.18,7.23,4.74,22.13,0.43,30.2c-5.07,9.5-16.22,18.64-25.72,16.62c-4.25-0.91-8.12-4.05-12.57-7.66
		c-2.76-2.24-5.73-4.65-7.8-7.66c-5.37-7.78-6.96-22.77,2.31-32.51c9.83-10.32,24.59-7.1,25.28-6.94
		c-1.53,0.43-8.85,2.68-13.29,10.26C-529.54,1761.16-527.6,1769-527.21,1770.44z"/>
	<path class="st1" d="M-508.28,1744.58c0.29-2.39,0.38-5.47-0.29-8.96c-0.24-1.23-0.54-2.35-0.87-3.37
		c-0.06-0.04-1.03-0.73-0.96-1.83c0.07-1.09,1.1-1.87,1.93-1.88c1.18-0.01,1.97,1.61,2.46,2.6c0.65,1.33,1.71,4.22,0.72,8.77
		c0.57-1.08,4.41-7.99,12.62-9.78c5.29-1.15,9.61,0.44,11.27,1.16c-0.84,1.63-4.09,7.47-11.27,10.4
		c-5.67,2.31-10.71,1.56-12.71,1.16C-506.36,1743.42-507.32,1744-508.28,1744.58z"/>
	<path class="st3" d="M-494.41,1726.08c3.22-0.53,9.01-0.95,15.1,1.73c1.58,0.7,2.95,1.5,4.12,2.31c-1.52,3.06-4.21,7.5-8.81,11.63
		c-2.72,2.45-5.42,4.16-7.66,5.35c4.13-0.03,14.16,0.49,23.26,7.44c3.31,2.53,5.69,5.3,7.37,7.66c2.8-0.71,13-3.66,19.36-13.58
		c1.64-2.55,5.87-9.15,4.62-18.06c-1.16-8.33-6.39-13.48-8.09-15.03c-0.9-1.09-1-2.04-1.01-2.46c-0.05-2.13,1.95-4.33,5.06-5.1
		c0.57-0.15,1.55-0.48,1.64-1.06c0.13-0.87-1.78-1.87-3.08-2.26c-0.75-0.23-2.36-0.57-4.53,0.1c0.06-1.79,0.13-3.57,0.19-5.36
		c0.03-0.09,0.24-0.78-0.11-1.19c-0.39-0.46-1.42-0.49-2.24,0.29c-1.35,1.1-2.7,2.19-4.05,3.29c-1.24-1.64-2.48-3.27-3.72-4.91
		c-0.32-0.84-1.17-1.14-1.66-0.87c-0.35,0.19-0.54,0.68-0.47,1.19c0.04,2.25,0.07,4.49,0.11,6.74c-0.06,0.25-0.31,1.06-1.11,1.64
		c-1.1,0.79-2.33,0.48-2.5,0.43c-1.97-0.55-9.98-2.53-18.35,1.73C-491.86,1713.28-494.16,1724.7-494.41,1726.08z"/>
	<path class="st4" d="M-488.2,1751.8c1.2,2.27,5.62,11.27,2.75,22.25c-1.85,7.04-5.83,11.62-7.95,13.73
		c3.11,2.63,5.88,3.62,7.8,4.05c5.04,1.11,7.25-0.99,11.7,1.01c1.18,0.53,2.49,1.34,4.33,1.16c0.53-0.05,2.53-0.33,3.76-1.88
		c1.26-1.59,0.55-3.08,1.16-6.21c0.49-2.55,1.42-3.99,1.88-5.06c2.12-4.9-0.1-14.89-6.5-21.53
		C-476.7,1751.62-486.54,1751.75-488.2,1751.8z"/>
	<path class="st1" d="M-458.8,1769.86c-0.16,1.79-0.22,5.72,2.24,9.1c3.72,5.11,11.73,6.93,19.51,3.83
		c-0.21-1.21-1.82-9.83-9.9-14.38c-5.62-3.16-11.12-2.53-12.93-2.24c1.47,0.56,3.83,1.67,6.14,3.83c2.4,2.24,3.68,4.62,4.33,6.07
		C-452.54,1774-455.67,1771.93-458.8,1769.86z"/>
	<path class="st5" d="M-499.18,1727.24c0.43-2.93,2.05-11.19,9.1-18.06c4.43-4.32,9.18-6.3,11.99-7.22
		c-1.04-4.38-1.91-9.81-2.02-16.04c-0.06-3.7,0.15-7.08,0.51-10.08c-0.53-5.12-4.02-9.21-8.45-10.15c-4.49-0.95-8.09,1.72-8.67,2.17
		c-1.03,2.14-2.85,5.48-5.78,9.03c-5.18,6.27-9.21,7.6-14.16,13.22c-2.12,2.4-5,6.26-7.37,12.06c4.43,2.7,11.08,7.62,16.47,15.82
		c2.38,3.62,4,7.11,5.13,10.11c0.35,0.62,1.01,0.99,1.66,0.94C-499.93,1728.98-499.21,1728.21-499.18,1727.24z"/>
	<path class="st1" d="M-473.94,1701.09c-0.31-0.9-2.4-7.36,1.44-13.77c3.9-6.51,10.74-7.66,11.65-7.8
		c0.27,1.11,1.76,7.73-2.41,14.06C-466.97,1699.22-472.64,1700.77-473.94,1701.09z"/>
	<path class="st1" d="M-481.26,1660.25c1.45-0.85,3.18-1.73,5.2-2.5c3.46-1.32,6.6-1.88,9.05-2.12c-2.59,0.84-5.79,2.17-9.15,4.33
		c-1.88,1.21-3.48,2.47-4.82,3.66c1.31,0.52,7.08,2.65,13.68,0.1c7.38-2.86,10.15-9.39,10.6-10.5c-0.7-0.45-7.74-4.81-15.6-1.64
		C-478.22,1653.97-480.71,1659.04-481.26,1660.25z"/>
	<path class="st1" d="M-487.33,1666.9c-0.26-0.06,0.82-3.43,0.1-8.67c-0.31-2.25-0.86-4.11-1.35-5.49
		c-0.24-0.28-1.57-1.87-1.06-3.08c0.59-1.39,3.44-1.88,4.82-0.96C-480.87,1651.32-486.77,1667.02-487.33,1666.9z"/>
	<path class="st6" d="M-542.53,1727.53c1.86,1.35,4.03,3.14,6.21,5.49c2.45,2.64,4.23,5.22,5.49,7.37c1-0.94,3.6-3.14,7.66-3.9
		c4.31-0.81,7.71,0.47,8.96,1.01c0.32-1.12,0.68-2.85,0.43-4.91c-0.29-2.43-1.16-3.31-0.87-4.62c0.27-1.19,1.5-2.72,6.07-3.9
		c-3.98-12.09-7.98-15.23-10.98-15.75c-1.82-0.32-5.13,0.01-8.09-2.31c-1.58-1.23-1.99-2.38-3.32-2.46
		c-1.63-0.09-2.97,1.52-5.06,4.05c-1.65,1.99-2.47,2.99-3.03,4.48c-1.12,2.97-0.1,4.55-0.43,7.8
		C-539.68,1721.74-540.34,1724.41-542.53,1727.53z"/>
	<path class="st7" d="M-547.24,1775.83c3.31-2.51-0.63-8.69,1.93-18.11c2.04-7.54,7.07-12.82,11.17-16.18
		c-0.45-0.67-8.77-12.59-22.92-11.94c-11.01,0.5-20.81,8.39-24.08,19.65c1.78,4.13,5.09,10.39,11.17,16.18
		C-563.34,1771.75-551.66,1779.18-547.24,1775.83z"/>
	<path class="st8" d="M-574.17,1730.27c1.8-1.67,6.46-5.51,13.29-6.07c2.43-0.2,4.55,0.06,6.21,0.43c0.56-0.62,5.18-5.89,3.76-12.57
		c-1.34-6.29-7.06-9.31-7.8-9.68c-3-1.52-4.15-0.67-8.96-2.89c-3.39-1.57-3.97-2.52-5.49-2.31c-2.98,0.42-4.66,4.63-6.21,8.52
		c-2.34,5.87-3.81,9.58-2.6,14.3C-580.46,1725.92-575.84,1729.2-574.17,1730.27z"/>
	<path class="st8" d="M-579.08,1735.91c-2.03-1.05-6.27-3.62-8.81-8.67c-3.29-6.52-1.63-12.95-0.72-16.47
		c1.43-5.53,4.19-9.58,6.36-12.14c0.67-1.24,1.43-3,1.88-5.2c0.64-3.18,0.33-5.86,0-7.51c-0.35-1.4,0.34-2.81,1.52-3.32
		c1.38-0.6,3.17,0.13,3.76,1.73c0.8,1.27,2.13,3.13,4.19,4.91c4.53,3.93,8.35,3.85,13.58,6.28c1.87,0.87,8.64,4.02,11.85,9.75
		c4.59,8.2,0.06,18.4-1.16,20.95c-1.16-0.29-2.31-0.58-3.47-0.87c1-1.39,4.96-7.24,3.32-13.94c-1.6-6.56-7.61-10.08-10.26-11.63
		c-4.28-2.5-6.19-1.94-11.27-4.84c-3.83-2.19-6.53-4.67-8.16-6.36c0.08,1.68,0.05,4.23-0.72,7.15c-1.68,6.41-5.01,7.56-7.3,13.51
		c-0.72,1.87-2.98,7.77-0.72,14.01c2.11,5.85,7.03,8.8,8.81,9.75C-577.3,1733.98-578.19,1734.95-579.08,1735.91z"/>
	<path class="st9" d="M-540.29,1707.01c1.07-2.83,2.65-4.54,3.61-5.42c1.13-1.03,2.01-1.85,3.4-2.09c2.36-0.42,3.46,1.3,4.98,0.72
		c1.55-0.59,1.55-2.79,2.53-5.2c0.82-2.01,2.5-4.62,6.36-7.08c-0.17-0.84-1.44-6.77-7.22-9.97c-5.24-2.89-10.35-1.44-11.27-1.16
		c1.3,1.12,3.1,2.95,4.62,5.63c1.25,2.21,1.89,4.27,2.24,5.78c-0.36-0.95-2.43-6.12-8.02-8.38c-0.64-0.26-7.92-3.05-13.36,1.66
		c-4.38,3.79-4.16,9.49-4.12,10.26c2.35,1.07,5.53,2.84,8.74,5.71C-543.95,1700.91-541.62,1704.52-540.29,1707.01z"/>
	<path class="st1" d="M-540.74,1676.67c0.32-2.15,0.64-4.3,0.96-6.45c0.45-1.35-0.4-2.61-1.35-2.75c-0.83-0.12-1.85,0.6-2.07,1.78
		c-0.03,1.25-0.06,2.5-0.1,3.76c-0.63-1.23-3.15-5.78-8.77-8.04c-4.73-1.91-8.92-1.09-10.4-0.72c0.67,1.48,2.87,5.82,7.95,8.67
		c4.86,2.73,9.48,2.48,11.13,2.31C-542.51,1675.71-541.63,1676.19-540.74,1676.67z"/>
	<path class="st1" d="M-532.99,1672.19c-0.48-0.38-2.91-2.35-3.28-5.78c-0.49-4.58,3.14-7.52,3.37-7.71
		c1.55,0.94,3.54,2.39,5.49,4.53c1.47,1.62,2.53,3.21,3.27,4.53c-0.27-1.23-1-5.26,1.16-9.44c3.15-6.11,9.74-7.29,10.5-7.42
		c0.59,0.65,4.45,5.05,3.66,11.37c-0.64,5.15-3.96,8.21-4.82,8.96c1.08-0.95,3.54-2.82,7.13-3.27c1.52-0.19,2.84-0.08,3.85,0.1
		c-1.07,2.76-3.18,7.09-7.32,11.08c-2.13,2.05-4.27,3.51-6.07,4.53c-1.32-1.96-2.63-3.92-3.95-5.88c1.19-3.25,2.33-7.13,3.08-11.56
		c0.39-2.29,0.63-4.45,0.77-6.45c-1.42,2.87-2.84,6.21-4.05,10.02c-0.68,2.12-1.21,4.16-1.64,6.07c-1.28-0.99-3.49-2.43-6.55-3.18
		C-530.16,1672.24-531.76,1672.16-532.99,1672.19z"/>
	<path class="st1" d="M-544.69,1781.06c0.33,1.31,0.93,2.92,2.02,4.55c0.28,0.42,0.58,0.81,0.87,1.16
		c-1.57,1.41-3.64,3.59-5.49,6.65c-1.84,3.06-2.8,5.9-3.32,7.95c1.5-2.31,3.48-4.93,6.07-7.59c1.56-1.6,3.1-2.96,4.55-4.12
		c2.34,1.85,4.67,3.71,7.01,5.56c-1.18,2.51-4.02,7.64-9.82,11.78c-6.71,4.77-13.5,5.44-16.25,5.56
		c-0.53-2.09-2.54-10.92,2.38-20.01C-552.85,1785.47-546.96,1782.18-544.69,1781.06z"/>
</g>
<g>
	<path class="st1" d="M567.89,772.45c1.75-2.32,4.26-5.16,7.69-7.91c2.68-2.15,5.27-3.7,7.47-4.83
		c-18.08-7.87-47.21-23.28-73.57-52.26c-52.64-57.88-69.39-142.6-47.43-214.77c8.22-27.01,27.34-89.87,87.84-113.31
		c49.17-19.05,95.8-0.49,108.92,5.27c-3.44-2.45-60.38-41.57-123.85-14.93c-40.26,16.89-58.01,51.93-71.15,78.18
		c-28.88,57.67-41.72,144.27,0,223.11C495.46,730.84,545.03,760.66,567.89,772.45z"/>
	<path class="st1" d="M692.18,353.61c-14.58-9.59-82.08-51.8-159.28-31.04c-114.33,30.75-140.33,170.13-143.47,188.56
		c-19.51,114.35,48.64,203.28,57.39,214.33c4.74,5.99,8.97,10.76,12,14.05c-15.8-9.62-36.66-25.28-54.75-49.78
		c-44.27-59.93-38.62-127.6-36.31-146.98c-4.58,20.82-9.86,59.37,3.51,103.65c5.63,18.63,19.59,64.88,63.83,94.87
		c15.92,10.79,31.13,16.34,41.58,19.32c7.61,8.91,21.27,22.45,42.16,32.21c12.18,5.69,23.42,8.5,32.21,9.96
		c1.76-5.08,3.51-10.15,5.27-15.23c-21.96-9.65-65.47-32.36-100.72-79.64c-49.64-66.6-49.58-137.27-49.19-162.21
		c0.44-28.57,1.37-87.8,43.33-142.89c29.92-39.27,66.9-58.31,86.67-66.76c-14.96,9.33-37.57,26.24-56.51,54.17
		c-32.31,47.62-33.16,96.63-32.5,115.36c12.88-29.47,25.77-58.95,38.65-88.42c2.44-8.32,6.99-20.34,15.81-32.79
		c0,0,18.77-26.5,52.12-40.11c59.08-24.12,120.68,14.35,126.34,18.01C684.28,359.37,688.23,356.49,692.18,353.61z"/>
	<path class="st1" d="M504.2,783.44c-20.11-2.38-55.83-9.61-90.47-35.15c-71.37-52.59-77.68-138.33-78.46-151.96
		c-1.89,16.09-2.36,38.35,3.79,63.54c14.35,58.74,54.85,93.03,70.28,104.82c-13.26-3.09-75.57-19.18-115.37-80.79
		c-7.83-12.13-44.54-72.06-24-147c22.83-83.32,97.4-115.66,106.58-119.45c-10.62,10.82-29.78,33.29-40.42,67.64
		c-9.2,29.78-7.95,55.42-6.15,69.97c2.4-20.35,9.67-58.72,35.87-98.38c30.52-46.22,70.05-68.93,88.73-78.17
		c12.89-11.87,25.76-23.73,38.65-35.58c-11.13,4.76-28.04,12.5-47.88,23.71c-23.55,13.32-25.97,17.26-41.28,25.03
		c-23.32,11.85-48.66,24.72-76.86,18.02c-21.64-5.14-47.55-22.4-52.26-48.31c-0.84-4.53-4.49-28.35,11.85-40.42
		c12.44-9.16,31.89-8.16,47.45,3.53c2.85-4.86,9.24-17.32,6.15-31.62c-5.02-23.02-30.91-33.53-46.57-36.01
		c-8.2-1.31-26.73-2.5-54.89,15.37c-55.01,34.86-75.77,97.33-80.24,111.85c-36.89,120,34.51,233.47,45.69,250.64
		c64.23,98.79,161.22,132.32,198.52,145.21c60.03,20.76,113.2,23.84,148.14,23.14L504.2,783.44z M302.62,270.02
		c12.63,1.13,24.1,14.98,27.87,34.7c-3.14-2.19-11.72-7.54-23.06-6.6c-3.98,0.33-7.32,1.35-9.88,2.42c0.96-2.15,2.6-6.64,1.99-12.3
		c-1-9.08-7.05-14.53-8.57-15.8C295.96,269.98,299.98,269.77,302.62,270.02z M268.8,274.84c1.6,0.18,9.74,1.29,15.58,8.57
		c6.29,7.85,5.06,16.79,4.84,18.24c-2.13,0.86-5.39,2.48-8.57,5.47c-2.6,2.46-4.24,4.98-5.27,6.83c-1.41-3.57-5.12-11.5-13.61-18.02
		c-8.77-6.72-17.73-8.18-21.52-8.57C249.76,283.2,259.27,279.02,268.8,274.84z M215,309.99c2.73-1.8,23.55-15.06,39.31-4.61
		c9,5.98,11.42,16.46,12.07,19.98c-1.68,6.35-3.36,12.73-5.06,19.1c-3.26-3.5-12.54-12.52-27.67-15.6
		c-19.31-3.94-34.29,4.69-37.75,6.8C197.6,330.48,202.48,318.21,215,309.99z M184.46,364.73c6.11-7.56,20.56-25.52,41.87-24
		c14.16,0.98,26.71,10.25,33.39,21.38c3.94,6.54,5.31,12.85,5.86,16.97c-7.99-2.32-26.19-6.37-47.73-0.29
		c-30.01,8.49-45.48,30.72-49.48,36.89C168.09,407.53,168.43,384.63,184.46,364.73z M169.09,447c5.39-14.12,16.79-44.07,47-54.46
		c39.66-13.61,76.41,18.61,78.19,20.21c-12.42,3.16-50.67,14.59-79.93,51.83c-33.53,42.63-31.91,89.44-31.2,101
		C176.98,554.79,148.21,501.93,169.09,447z M231.32,646.41c-12.44-20.27-42.86-79.07-19.33-141.71c4.37-11.6,21.42-57,67.94-74.95
		c23.61-9.12,45.27-7.5,57.39-5.57c-9.16,5.9-82.91,55.2-90.49,147.57c-5.55,67.84,28.02,116.76,37.77,130
		C270.97,692.52,248.92,675.08,231.32,646.41z"/>
	<path class="st2" d="M657.05,728.97c3.43-34.27,24.57-61.3,52.26-68.51c2.62-0.68,31.01-7.63,50.07,9.22
		c24.86,21.98,14.42,67.27,1.32,91.79c-15.42,28.87-49.32,56.67-78.18,50.51c-12.93-2.76-24.69-12.31-38.21-23.28
		c-8.39-6.81-17.41-14.13-23.72-23.28c-16.31-23.66-21.17-69.22,7.03-98.82c29.88-31.37,74.76-21.58,76.86-21.08
		c-4.67,1.32-26.9,8.14-40.41,31.18C649.97,700.76,655.87,724.59,657.05,728.97z"/>
	<path class="st1" d="M714.58,650.36c0.89-7.25,1.16-16.64-0.88-27.23c-0.72-3.72-1.63-7.15-2.64-10.25
		c-0.17-0.12-3.13-2.21-2.93-5.56c0.2-3.3,3.35-5.7,5.86-5.71c3.6-0.02,5.99,4.88,7.47,7.91c1.98,4.06,5.18,12.83,2.2,26.64
		c1.74-3.27,13.4-24.3,38.36-29.72c16.08-3.49,29.2,1.34,34.26,3.51c-2.55,4.96-12.43,22.71-34.26,31.62
		c-17.22,7.03-32.57,4.76-38.65,3.51C720.44,646.85,717.51,648.6,714.58,650.36z"/>
	<path class="st3" d="M756.74,594.14c9.79-1.6,27.38-2.89,45.9,5.27c4.81,2.12,8.97,4.56,12.52,7.03
		c-4.62,9.31-12.8,22.8-26.79,35.36c-8.28,7.44-16.47,12.64-23.28,16.25c12.54-0.09,43.06,1.5,70.71,22.62
		c10.07,7.69,17.31,16.1,22.4,23.28c8.52-2.16,39.52-11.12,58.85-41.28c4.98-7.77,17.83-27.82,14.05-54.9
		c-3.54-25.33-19.43-40.98-24.59-45.68c-2.73-3.3-3.04-6.2-3.07-7.47c-0.17-6.47,5.94-13.15,15.37-15.52
		c1.74-0.46,4.71-1.45,4.98-3.22c0.4-2.64-5.41-5.69-9.37-6.88c-2.29-0.69-7.17-1.73-13.76,0.29c0.2-5.43,0.39-10.86,0.59-16.29
		c0.08-0.26,0.73-2.37-0.33-3.62c-1.19-1.4-4.33-1.48-6.81,0.88c-4.1,3.33-8.2,6.66-12.3,9.99c-3.77-4.98-7.54-9.95-11.31-14.93
		c-0.96-2.55-3.57-3.45-5.05-2.64c-1.05,0.58-1.63,2.06-1.43,3.62c0.11,6.83,0.22,13.66,0.33,20.5c-0.2,0.76-0.94,3.23-3.37,4.98
		c-3.33,2.4-7.09,1.46-7.61,1.32c-5.97-1.66-30.33-7.69-55.78,5.27C764.5,555.22,757.51,589.94,756.74,594.14z"/>
	<path class="st4" d="M775.63,672.32c3.66,6.91,17.1,34.27,8.34,67.64c-5.61,21.4-17.74,35.31-24.16,41.72
		c9.45,8,17.88,11.01,23.72,12.3c15.31,3.39,22.04-3.02,35.57,3.07c3.6,1.62,7.56,4.07,13.18,3.51c1.6-0.16,7.69-1,11.42-5.71
		c3.81-4.83,1.68-9.35,3.51-18.89c1.49-7.76,4.31-12.14,5.71-15.37c6.44-14.91-0.29-45.26-19.76-65.44
		C810.59,671.76,780.67,672.17,775.63,672.32z"/>
	<path class="st1" d="M865,727.22c-0.48,5.45-0.68,17.4,6.81,27.67c11.31,15.53,35.67,21.06,59.29,11.64
		c-0.63-3.67-5.54-29.88-30.09-43.7c-17.08-9.61-33.81-7.68-39.31-6.81c4.46,1.7,11.63,5.07,18.67,11.64
		c7.29,6.81,11.2,14.03,13.18,18.45C884.04,739.81,874.52,733.51,865,727.22z"/>
	<path class="st5" d="M742.25,597.65c1.31-8.91,6.22-34.02,27.67-54.9c13.47-13.12,27.91-19.16,36.45-21.96
		c-3.16-13.32-5.82-29.81-6.15-48.75c-0.2-11.24,0.46-21.51,1.54-30.63c-1.61-15.57-12.21-27.99-25.69-30.85
		c-13.66-2.9-24.58,5.23-26.35,6.59c-3.14,6.51-8.66,16.65-17.57,27.45c-15.74,19.07-27.98,23.11-43.04,40.19
		c-6.44,7.3-15.2,19.03-22.4,36.67c13.46,8.21,33.69,23.16,50.07,48.09c7.23,11.01,12.17,21.61,15.59,30.74
		c1.07,1.89,3.06,3.02,5.05,2.85C739.98,602.93,742.16,600.6,742.25,597.65z"/>
	<path class="st1" d="M818.96,518.16c-0.94-2.74-7.29-22.38,4.39-41.87c11.86-19.79,32.63-23.29,35.43-23.72
		c0.82,3.38,5.34,23.51-7.32,42.75C840.17,512.49,822.93,517.19,818.96,518.16z"/>
	<path class="st1" d="M796.71,394.01c4.41-2.59,9.68-5.27,15.81-7.61c10.51-4.01,20.07-5.72,27.52-6.44
		c-7.87,2.55-17.6,6.6-27.82,13.18c-5.73,3.69-10.59,7.52-14.64,11.13c3.97,1.58,21.51,8.06,41.58,0.29
		c22.45-8.68,30.84-28.53,32.21-31.91c-2.12-1.36-23.52-14.62-47.43-4.98C805.96,374.91,798.39,390.34,796.71,394.01z"/>
	<path class="st1" d="M778.26,414.22c-0.78-0.17,2.51-10.43,0.29-26.35c-0.95-6.84-2.61-12.51-4.1-16.69
		c-0.74-0.86-4.77-5.7-3.22-9.37c1.78-4.23,10.45-5.71,14.64-2.93C797.9,366.86,779.96,414.58,778.26,414.22z"/>
	<path class="st6" d="M610.49,598.53c5.66,4.09,12.25,9.55,18.89,16.69c7.46,8.02,12.85,15.88,16.69,22.4
		c3.05-2.87,10.95-9.53,23.28-11.86c13.1-2.47,23.44,1.43,27.23,3.07c0.98-3.4,2.05-8.67,1.32-14.93
		c-0.87-7.37-3.53-10.07-2.64-14.05c0.81-3.61,4.55-8.25,18.45-11.86c-12.1-36.76-24.26-46.28-33.38-47.87
		c-5.54-0.97-15.58,0.02-24.59-7.03c-4.79-3.75-6.06-7.24-10.1-7.47c-4.96-0.28-9.02,4.62-15.37,12.3
		c-5.01,6.05-7.51,9.07-9.22,13.61c-3.4,9.01-0.32,13.82-1.32,23.72C619.14,580.94,617.15,589.04,610.49,598.53z"/>
	<path class="st7" d="M596.14,745.37c10.07-7.63-1.9-26.42,5.86-55.05c6.21-22.92,21.5-38.97,33.96-49.19
		c-1.37-2.03-26.67-38.26-69.69-36.31c-33.48,1.52-63.25,25.51-73.2,59.73c5.41,12.55,15.48,31.59,33.96,49.19
		C547.21,732.95,582.72,755.54,596.14,745.37z"/>
	<path class="st8" d="M514.31,606.88c5.47-5.07,19.64-16.75,40.41-18.45c7.38-0.6,13.82,0.2,18.89,1.32
		c1.71-1.89,15.74-17.91,11.42-38.21c-4.06-19.12-21.48-28.29-23.72-29.43c-9.11-4.62-12.62-2.02-27.23-8.78
		c-10.29-4.76-12.06-7.67-16.69-7.03c-9.07,1.26-14.17,14.07-18.89,25.91c-7.11,17.86-11.59,29.11-7.91,43.48
		C495.19,593.63,509.23,603.62,514.31,606.88z"/>
	<path class="st8" d="M499.37,624.01c-6.18-3.19-19.05-11.01-26.79-26.35c-10-19.83-4.96-39.37-2.2-50.07
		c4.34-16.82,12.74-29.13,19.32-36.89c2.02-3.77,4.35-9.11,5.71-15.81c1.96-9.67,1-17.83,0-22.84c-1.07-4.24,1.03-8.53,4.61-10.1
		c4.19-1.83,9.62,0.4,11.42,5.27c2.43,3.87,6.49,9.51,12.74,14.93c13.76,11.94,25.39,11.71,41.28,19.1
		c5.7,2.65,26.26,12.23,36.01,29.65c13.95,24.92,0.19,55.92-3.51,63.68c-3.51-0.88-7.03-1.76-10.54-2.64
		c3.03-4.22,15.07-22,10.1-42.38c-4.86-19.95-23.14-30.65-31.18-35.36c-13-7.61-18.82-5.9-34.26-14.71
		c-11.64-6.64-19.84-14.19-24.81-19.32c0.26,5.11,0.14,12.85-2.2,21.74c-5.12,19.47-15.24,22.97-22.18,41.06
		c-2.18,5.69-9.06,23.62-2.2,42.6c6.42,17.78,21.37,26.74,26.79,29.65C504.79,618.15,502.08,621.08,499.37,624.01z"/>
	<path class="st9" d="M617.3,536.17c3.27-8.6,8.07-13.8,10.98-16.47c3.42-3.14,6.12-5.62,10.32-6.37c7.18-1.29,10.52,3.95,15.15,2.2
		c4.71-1.78,4.7-8.48,7.69-15.81c2.48-6.1,7.6-14.04,19.32-21.52c-0.5-2.56-4.36-20.59-21.96-30.3
		c-15.91-8.79-31.45-4.37-34.26-3.51c3.94,3.41,9.44,8.98,14.05,17.13c3.81,6.72,5.76,12.97,6.81,17.57
		c-1.1-2.9-7.37-18.61-24.37-25.47c-1.95-0.79-24.08-9.29-40.63,5.05c-13.31,11.53-12.65,28.84-12.52,31.18
		c7.15,3.27,16.81,8.63,26.57,17.35C606.15,517.62,613.23,528.6,617.3,536.17z"/>
	<path class="st1" d="M615.91,443.94c0.98-6.54,1.95-13.08,2.93-19.62c1.37-4.09-1.23-7.92-4.1-8.34c-2.51-0.37-5.63,1.82-6.3,5.42
		c-0.1,3.81-0.2,7.61-0.29,11.42c-1.92-3.73-9.58-17.57-26.64-24.45c-14.38-5.8-27.13-3.3-31.62-2.2
		c2.04,4.5,8.71,17.68,24.16,26.35c14.78,8.29,28.82,7.53,33.82,7.03C610.54,441.01,613.22,442.47,615.91,443.94z"/>
	<path class="st1" d="M639.48,430.32c-1.47-1.15-8.83-7.15-9.96-17.57c-1.5-13.93,9.53-22.86,10.25-23.42
		c4.7,2.86,10.77,7.25,16.69,13.76c4.48,4.92,7.68,9.74,9.95,13.76c-0.83-3.75-3.04-15.98,3.51-28.69
		c9.58-18.58,29.61-22.17,31.92-22.55c1.8,1.98,13.52,15.36,11.13,34.55c-1.95,15.65-12.03,24.95-14.64,27.23
		c3.29-2.88,10.77-8.57,21.67-9.95c4.61-0.59,8.63-0.25,11.71,0.29c-3.25,8.39-9.67,21.55-22.25,33.67
		c-6.48,6.24-12.98,10.66-18.45,13.76c-4-5.95-8-11.91-12-17.86c3.63-9.88,7.07-21.66,9.37-35.14c1.18-6.95,1.92-13.52,2.34-19.62
		c-4.31,8.71-8.62,18.88-12.3,30.45c-2.05,6.46-3.68,12.64-4.98,18.45c-3.89-3.02-10.6-7.39-19.91-9.66
		C648.07,430.45,643.22,430.21,639.48,430.32z"/>
	<path class="st1" d="M603.9,761.26c1.01,3.98,2.82,8.89,6.15,13.83c0.86,1.28,1.75,2.45,2.64,3.51
		c-4.77,4.3-11.08,10.91-16.69,20.2c-5.61,9.29-8.52,17.94-10.1,24.16c4.56-7.01,10.58-15,18.45-23.06c4.74-4.86,9.43-9,13.83-12.52
		c7.1,5.64,14.2,11.27,21.3,16.91c-3.59,7.63-12.21,23.23-29.86,35.79c-20.4,14.51-41.02,16.54-49.41,16.91
		c-1.63-6.35-7.73-33.19,7.25-60.83C579.1,774.67,597.02,764.66,603.9,761.26z"/>
</g>
</svg>
